<svg width="148" height="44" viewBox="0 0 148 44" fill="none" xmlns="http://www.w3.org/2000/svg">
<g filter="url(#filter0_d_17_27)">
<circle cx="22" cy="18" r="18" fill="#094B72"/>
<path d="M22.66 21.36H27.14V24H19.24V9.96H22.66V21.36Z" fill="white"/>
<path d="M57.66 22.36H62.14V25H54.24V10.96H57.66V22.36ZM64.5913 19.4C64.5913 18.2533 64.8046 17.2467 65.2313 16.38C65.6713 15.5133 66.2646 14.8467 67.0113 14.38C67.7579 13.9133 68.5913 13.68 69.5113 13.68C70.2979 13.68 70.9846 13.84 71.5713 14.16C72.1713 14.48 72.6313 14.9 72.9513 15.42V13.84H76.3713V25H72.9513V23.42C72.6179 23.94 72.1513 24.36 71.5513 24.68C70.9646 25 70.2779 25.16 69.4913 25.16C68.5846 25.16 67.7579 24.9267 67.0113 24.46C66.2646 23.98 65.6713 23.3067 65.2313 22.44C64.8046 21.56 64.5913 20.5467 64.5913 19.4ZM72.9513 19.42C72.9513 18.5667 72.7113 17.8933 72.2313 17.4C71.7646 16.9067 71.1913 16.66 70.5113 16.66C69.8313 16.66 69.2513 16.9067 68.7713 17.4C68.3046 17.88 68.0713 18.5467 68.0713 19.4C68.0713 20.2533 68.3046 20.9333 68.7713 21.44C69.2513 21.9333 69.8313 22.18 70.5113 22.18C71.1913 22.18 71.7646 21.9333 72.2313 21.44C72.7113 20.9467 72.9513 20.2733 72.9513 19.42ZM96.3655 13.84L93.3455 25H89.5655L87.8055 17.76L85.9855 25H82.2255L79.1855 13.84H82.6055L84.1855 21.82L86.0655 13.84H89.6855L91.5855 21.78L93.1455 13.84H96.3655ZM102.59 10.2V25H99.1697V10.2H102.59ZM108.288 12.68C107.688 12.68 107.195 12.5067 106.808 12.16C106.435 11.8 106.248 11.36 106.248 10.84C106.248 10.3067 106.435 9.86667 106.808 9.52C107.195 9.16 107.688 8.98 108.288 8.98C108.875 8.98 109.355 9.16 109.728 9.52C110.115 9.86667 110.308 10.3067 110.308 10.84C110.308 11.36 110.115 11.8 109.728 12.16C109.355 12.5067 108.875 12.68 108.288 12.68ZM109.988 13.84V25H106.568V13.84H109.988ZM124.487 19.24C124.487 19.56 124.467 19.8933 124.427 20.24H116.687C116.74 20.9333 116.96 21.4667 117.347 21.84C117.747 22.2 118.233 22.38 118.807 22.38C119.66 22.38 120.253 22.02 120.587 21.3H124.227C124.04 22.0333 123.7 22.6933 123.207 23.28C122.727 23.8667 122.12 24.3267 121.387 24.66C120.653 24.9933 119.833 25.16 118.927 25.16C117.833 25.16 116.86 24.9267 116.007 24.46C115.153 23.9933 114.487 23.3267 114.007 22.46C113.527 21.5933 113.287 20.58 113.287 19.42C113.287 18.26 113.52 17.2467 113.987 16.38C114.467 15.5133 115.133 14.8467 115.987 14.38C116.84 13.9133 117.82 13.68 118.927 13.68C120.007 13.68 120.967 13.9067 121.807 14.36C122.647 14.8133 123.3 15.46 123.767 16.3C124.247 17.14 124.487 18.12 124.487 19.24ZM120.987 18.34C120.987 17.7533 120.787 17.2867 120.387 16.94C119.987 16.5933 119.487 16.42 118.887 16.42C118.313 16.42 117.827 16.5867 117.427 16.92C117.04 17.2533 116.8 17.7267 116.707 18.34H120.987ZM134.011 22.1V25H132.271C131.031 25 130.064 24.7 129.371 24.1C128.677 23.4867 128.331 22.4933 128.331 21.12V16.68H126.971V13.84H128.331V11.12H131.751V13.84H133.991V16.68H131.751V21.16C131.751 21.4933 131.831 21.7333 131.991 21.88C132.151 22.0267 132.417 22.1 132.791 22.1H134.011Z" fill="#2D2F30"/>
</g>
<defs>
<filter id="filter0_d_17_27" x="0" y="0" width="138.011" height="44" filterUnits="userSpaceOnUse" color-interpolation-filters="sRGB">
<feFlood flood-opacity="0" result="BackgroundImageFix"/>
<feColorMatrix in="SourceAlpha" type="matrix" values="0 0 0 0 0 0 0 0 0 0 0 0 0 0 0 0 0 0 127 0" result="hardAlpha"/>
<feOffset dy="4"/>
<feGaussianBlur stdDeviation="2"/>
<feComposite in2="hardAlpha" operator="out"/>
<feColorMatrix type="matrix" values="0 0 0 0 0 0 0 0 0 0 0 0 0 0 0 0 0 0 0.25 0"/>
<feBlend mode="normal" in2="BackgroundImageFix" result="effect1_dropShadow_17_27"/>
<feBlend mode="normal" in="SourceGraphic" in2="effect1_dropShadow_17_27" result="shape"/>
</filter>
</defs>
</svg>
